<svg width="17" height="17" viewBox="0 0 17 17" fill="none" xmlns="http://www.w3.org/2000/svg">
<path d="M8.5 0C3.81397 0 0 3.81397 0 8.5C0 13.186 3.81397 17 8.5 17C13.186 17 17 13.186 17 8.5C17 3.81397 13.186 0 8.5 0ZM8.5 1.41667C8.62802 1.41667 8.81002 1.48439 9.06584 1.7819C9.32165 2.07945 9.60122 2.58252 9.83781 3.23315C9.99878 3.67583 10.132 4.20507 10.2501 4.76742C9.7069 4.87229 9.12081 4.93896 8.5 4.93896C7.87881 4.93896 7.29307 4.87241 6.74992 4.76742C6.86795 4.20507 7.00122 3.67583 7.16219 3.23315C7.39878 2.58252 7.67835 2.07945 7.93416 1.7819C8.18997 1.48436 8.37198 1.41667 8.5 1.41667ZM10.7509 1.7902C11.6452 2.09083 12.4618 2.55849 13.1567 3.16536C13.0099 3.49957 12.6531 3.86324 12.0264 4.18913C11.9033 4.25314 11.7549 4.30709 11.6156 4.36483C11.4891 3.78683 11.3455 3.23525 11.1687 2.74894C11.0427 2.40231 10.9033 2.08414 10.7509 1.7902ZM6.24772 1.79159C6.09569 2.08509 5.95712 2.40294 5.8313 2.74894C5.65462 3.23481 5.51218 3.78604 5.38582 4.36344C5.24673 4.30577 5.09788 4.25307 4.97494 4.18913C4.34828 3.86324 3.99145 3.49957 3.84465 3.16536C4.53903 2.55917 5.35455 2.09232 6.24772 1.79159ZM2.8444 4.2417C3.20267 4.72704 3.72238 5.13352 4.32194 5.44531C4.57582 5.57734 4.85138 5.69295 5.13818 5.7981C5.05589 6.43233 5.00523 7.09932 4.98324 7.79167H1.45125C1.58246 6.46373 2.08497 5.2498 2.8444 4.2417ZM14.157 4.24308C14.9158 5.25088 15.4176 6.46441 15.5487 7.79167H12.0168C11.9948 7.09932 11.9441 6.43233 11.8618 5.7981C12.1488 5.69294 12.4255 5.57736 12.6794 5.44531C13.2786 5.13371 13.7987 4.72801 14.157 4.24308ZM6.52441 6.16471C7.14786 6.28178 7.8059 6.35563 8.5 6.35563C9.19353 6.35563 9.85229 6.28298 10.4756 6.1661C10.5379 6.6851 10.5789 7.22675 10.5987 7.79167H6.40129C6.4211 7.22625 6.46204 6.68412 6.52441 6.16471ZM1.45125 9.20833H4.98324C5.00466 9.88286 5.05391 10.5325 5.13265 11.1521C4.84803 11.2567 4.57399 11.371 4.32194 11.5021C3.71171 11.8195 3.18394 12.2352 2.82503 12.732C2.07667 11.729 1.58133 10.5248 1.45125 9.20833ZM6.40129 9.20833H10.5987C10.5796 9.75476 10.5415 10.279 10.4825 10.7827C9.85775 10.665 9.19721 10.5919 8.50138 10.5918H8.5C7.80417 10.5919 7.14393 10.665 6.51888 10.7827C6.45987 10.279 6.42044 9.75481 6.40129 9.20833ZM12.0168 9.20833H15.5487C15.4187 10.5248 14.9233 11.729 14.175 12.732C13.8161 12.2352 13.2883 11.8195 12.6781 11.5021C12.426 11.371 12.1519 11.2567 11.8673 11.1521C11.9461 10.5325 11.9953 9.88286 12.0168 9.20833ZM8.5 12.0085C9.12478 12.0085 9.71407 12.0753 10.2598 12.1814C10.1397 12.7637 10.0036 13.311 9.83781 13.7668C9.60122 14.4175 9.32165 14.9205 9.06584 15.2181C8.81002 15.5156 8.62802 15.5833 8.5 15.5833C8.37198 15.5833 8.18997 15.5156 7.93416 15.2181C7.67835 14.9205 7.39878 14.4175 7.16219 13.7668C6.99643 13.311 6.86027 12.7637 6.74023 12.1814C7.28596 12.0754 7.87561 12.0085 8.5 12.0085ZM5.37614 12.5868C5.50451 13.1827 5.64966 13.7515 5.8313 14.2511C5.95712 14.5971 6.09569 14.9149 6.24772 15.2084C5.34644 14.905 4.5237 14.4322 3.82528 13.818C3.96301 13.4741 4.32494 13.0956 4.97355 12.7583C5.0941 12.6956 5.24001 12.6434 5.37614 12.5868ZM11.6239 12.5881C11.7593 12.6446 11.905 12.6959 12.0251 12.7583C12.6746 13.0961 13.036 13.4751 13.1733 13.8194C12.475 14.4331 11.6533 14.9052 10.7523 15.2084C10.9043 14.9149 11.0429 14.5971 11.1687 14.2511C11.3502 13.7519 11.4955 13.1836 11.6239 12.5881Z" fill="#0C1E4B"/>
</svg>
