<svg width="125" height="33" viewBox="0 0 125 33" fill="none" xmlns="http://www.w3.org/2000/svg">
<circle cx="17.9998" cy="15.9998" r="14.9998" fill="url(#paint0_linear_1_202)" fill-opacity="0.5"/>
<g filter="url(#filter0_d_1_202)">
<path d="M11.6451 4.65085C7.65598 5.15779 5.19974 8.02669 4.10218 11.4925C3.00461 14.9583 2.44684 23.2832 9.48477 28.1985C16.5227 33.1138 23.63 30.5074 26.696 28.3207C30.058 25.9229 33.8538 21.1052 32.826 13.5831C32.826 13.5831 32.2735 20.4022 26.053 23.7482C19.8325 27.0943 16.7144 22.7385 18.979 20.0095C21.2436 17.2806 21.9558 13.9745 21.2436 11.088C20.0997 6.4523 15.6342 4.14392 11.6451 4.65085Z" fill="url(#paint1_linear_1_202)" fill-opacity="0.95" shape-rendering="crispEdges"/>
</g>
<path d="M43.112 6.056V20.72H51.92V23.768H39.728V6.056H43.112ZM53.2696 7.184C53.2696 6.104 54.1336 5.24 55.3096 5.24C56.4616 5.24 57.3496 6.104 57.3496 7.184C57.3496 8.312 56.4856 9.128 55.3096 9.128C54.1336 9.128 53.2696 8.312 53.2696 7.184ZM56.9416 10.856V23.768H53.6776V10.856H56.9416ZM72.2407 16.472V23.768H68.9527V16.712C68.9527 14.504 67.9447 13.376 66.0487 13.376C64.1527 13.376 62.7607 14.84 62.7607 17.024V23.768H59.4967V10.856H62.7607V12.704C63.5047 11.384 64.9927 10.52 66.8167 10.52C70.1767 10.52 72.2407 12.704 72.2407 16.472ZM84.5073 10.856H87.7953V22.544C87.7953 26.792 84.6993 29.192 80.6433 29.192C77.9553 29.192 75.7473 27.992 74.5713 26.264L77.1153 24.68C77.8113 25.736 79.0833 26.408 80.6433 26.408C83.1153 26.408 84.5073 25.064 84.5073 22.544V21.416C83.6433 22.688 82.1073 23.384 80.3073 23.384C76.7313 23.456 73.9713 20.528 74.0193 16.952C74.0193 13.28 76.7073 10.52 80.3073 10.52C82.1313 10.52 83.6433 11.216 84.5073 12.488V10.856ZM84.5073 16.952C84.5073 14.768 83.0193 13.352 80.8353 13.352C78.6513 13.352 77.1633 14.864 77.1633 16.952C77.1633 19.04 78.6513 20.528 80.8353 20.528C83.0193 20.528 84.5073 19.136 84.5073 16.952ZM92.6827 10.856L95.4427 19.712L98.1307 11H101.107L103.795 19.712L106.555 10.856H110.011L105.523 23.768H102.235L99.5707 15.68L96.9067 23.768H93.6427L89.1307 10.856H92.6827ZM110.009 17.312C109.937 13.496 113.009 10.472 116.873 10.52C120.833 10.52 123.737 13.448 123.737 17.312C123.737 21.176 120.833 24.104 116.873 24.104C113.009 24.152 109.937 21.128 110.009 17.312ZM120.617 17.312C120.617 15.104 119.105 13.4 116.873 13.4C114.665 13.4 113.153 15.104 113.153 17.312C113.153 18.44 113.489 19.352 114.185 20.096C114.881 20.84 115.769 21.2 116.873 21.2C117.977 21.2 118.865 20.84 119.561 20.096C120.257 19.352 120.617 18.44 120.617 17.312Z" fill="#0C1E4B"/>
<path d="M43.112 6.056H43.612V5.556H43.112V6.056ZM43.112 20.72H42.612V21.22H43.112V20.72ZM51.92 20.72H52.42V20.22H51.92V20.72ZM51.92 23.768V24.268H52.42V23.768H51.92ZM39.728 23.768H39.228V24.268H39.728V23.768ZM39.728 6.056V5.556H39.228V6.056H39.728ZM42.612 6.056V20.72H43.612V6.056H42.612ZM43.112 21.22H51.92V20.22H43.112V21.22ZM51.42 20.72V23.768H52.42V20.72H51.42ZM51.92 23.268H39.728V24.268H51.92V23.268ZM40.228 23.768V6.056H39.228V23.768H40.228ZM39.728 6.556H43.112V5.556H39.728V6.556ZM56.9416 10.856H57.4416V10.356H56.9416V10.856ZM56.9416 23.768V24.268H57.4416V23.768H56.9416ZM53.6776 23.768H53.1776V24.268H53.6776V23.768ZM53.6776 10.856V10.356H53.1776V10.856H53.6776ZM53.7696 7.184C53.7696 6.39585 54.3938 5.74 55.3096 5.74V4.74C53.8735 4.74 52.7696 5.81215 52.7696 7.184H53.7696ZM55.3096 5.74C56.2054 5.74 56.8496 6.39965 56.8496 7.184H57.8496C57.8496 5.80834 56.7178 4.74 55.3096 4.74V5.74ZM56.8496 7.184C56.8496 8.0122 56.2337 8.628 55.3096 8.628V9.628C56.7375 9.628 57.8496 8.6118 57.8496 7.184H56.8496ZM55.3096 8.628C54.3855 8.628 53.7696 8.0122 53.7696 7.184H52.7696C52.7696 8.6118 53.8817 9.628 55.3096 9.628V8.628ZM56.4416 10.856V23.768H57.4416V10.856H56.4416ZM56.9416 23.268H53.6776V24.268H56.9416V23.268ZM54.1776 23.768V10.856H53.1776V23.768H54.1776ZM53.6776 11.356H56.9416V10.356H53.6776V11.356ZM72.2407 23.768V24.268H72.7407V23.768H72.2407ZM68.9527 23.768H68.4527V24.268H68.9527V23.768ZM62.7607 23.768V24.268H63.2607V23.768H62.7607ZM59.4967 23.768H58.9967V24.268H59.4967V23.768ZM59.4967 10.856V10.356H58.9967V10.856H59.4967ZM62.7607 10.856H63.2607V10.356H62.7607V10.856ZM62.7607 12.704H62.2607V14.6094L63.1963 12.9495L62.7607 12.704ZM71.7407 16.472V23.768H72.7407V16.472H71.7407ZM72.2407 23.268H68.9527V24.268H72.2407V23.268ZM69.4527 23.768V16.712H68.4527V23.768H69.4527ZM69.4527 16.712C69.4527 15.5412 69.1864 14.5696 68.5877 13.8865C67.9788 13.1916 67.0979 12.876 66.0487 12.876V13.876C66.8955 13.876 67.4666 14.1244 67.8356 14.5455C68.215 14.9784 68.4527 15.6748 68.4527 16.712H69.4527ZM66.0487 12.876C64.9658 12.876 64.0082 13.297 63.3249 14.0434C62.6439 14.7872 62.2607 15.8253 62.2607 17.024H63.2607C63.2607 16.0387 63.5735 15.2528 64.0625 14.7186C64.5492 14.187 65.2356 13.876 66.0487 13.876V12.876ZM62.2607 17.024V23.768H63.2607V17.024H62.2607ZM62.7607 23.268H59.4967V24.268H62.7607V23.268ZM59.9967 23.768V10.856H58.9967V23.768H59.9967ZM59.4967 11.356H62.7607V10.356H59.4967V11.356ZM62.2607 10.856V12.704H63.2607V10.856H62.2607ZM63.1963 12.9495C63.842 11.8039 65.1526 11.02 66.8167 11.02V10.02C64.8328 10.02 63.1674 10.9641 62.3251 12.4585L63.1963 12.9495ZM66.8167 11.02C68.3846 11.02 69.5967 11.5262 70.4208 12.4216C71.2497 13.3222 71.7407 14.6763 71.7407 16.472H72.7407C72.7407 14.4997 72.1997 12.8778 71.1566 11.7444C70.1087 10.6058 68.6088 10.02 66.8167 10.02V11.02ZM84.5073 10.856V10.356H84.0073V10.856H84.5073ZM87.7953 10.856H88.2953V10.356H87.7953V10.856ZM74.5713 26.264L74.307 25.8396L73.865 26.1148L74.158 26.5453L74.5713 26.264ZM77.1153 24.68L77.5328 24.4048L77.2647 23.998L76.851 24.2556L77.1153 24.68ZM84.5073 21.416H85.0073V19.79L84.0937 21.1351L84.5073 21.416ZM80.3073 23.384V22.8839L80.2972 22.8841L80.3073 23.384ZM74.0193 16.952L74.5193 16.9587V16.952H74.0193ZM84.5073 12.488L84.0937 12.7689L85.0073 14.114V12.488H84.5073ZM84.5073 11.356H87.7953V10.356H84.5073V11.356ZM87.2953 10.856V22.544H88.2953V10.856H87.2953ZM87.2953 22.544C87.2953 24.5378 86.5734 26.0585 85.4094 27.0862C84.2377 28.1207 82.5757 28.692 80.6433 28.692V29.692C82.7669 29.692 84.681 29.0633 86.0712 27.8358C87.4692 26.6015 88.2953 24.7982 88.2953 22.544H87.2953ZM80.6433 28.692C78.1022 28.692 76.0576 27.5592 74.9847 25.9827L74.158 26.5453C75.4371 28.4248 77.8084 29.692 80.6433 29.692V28.692ZM74.8356 26.6884L77.3796 25.1044L76.851 24.2556L74.307 25.8396L74.8356 26.6884ZM76.6978 24.9552C77.4986 26.1702 78.9389 26.908 80.6433 26.908V25.908C79.2278 25.908 78.124 25.3018 77.5328 24.4048L76.6978 24.9552ZM80.6433 26.908C81.9669 26.908 83.0763 26.547 83.8542 25.7762C84.633 25.0045 85.0073 23.8939 85.0073 22.544H84.0073C84.0073 23.7141 83.6856 24.5355 83.1504 25.0658C82.6143 25.597 81.7917 25.908 80.6433 25.908V26.908ZM85.0073 22.544V21.416H84.0073V22.544H85.0073ZM84.0937 21.1351C83.3438 22.239 81.983 22.884 80.3073 22.884V23.884C82.2316 23.884 83.9428 23.137 84.9209 21.6969L84.0937 21.1351ZM80.2972 22.8841C77.0232 22.95 74.4748 20.2717 74.5193 16.9587L73.5194 16.9453C73.4678 20.7843 76.4394 23.962 80.3174 23.8839L80.2972 22.8841ZM74.5193 16.952C74.5193 13.5449 76.9946 11.02 80.3073 11.02V10.02C76.42 10.02 73.5193 13.0151 73.5193 16.952H74.5193ZM80.3073 11.02C82.0057 11.02 83.3432 11.6641 84.0937 12.7689L84.9209 12.2071C83.9434 10.7679 82.2569 10.02 80.3073 10.02V11.02ZM85.0073 12.488V10.856H84.0073V12.488H85.0073ZM85.0073 16.952C85.0073 15.7427 84.5927 14.7073 83.8388 13.9745C83.0865 13.2432 82.0366 12.852 80.8353 12.852V13.852C81.818 13.852 82.6041 14.1688 83.1418 14.6915C83.6779 15.2127 84.0073 15.9773 84.0073 16.952H85.0073ZM80.8353 12.852C79.6249 12.852 78.5761 13.273 77.8284 14.0138C77.0808 14.7545 76.6633 15.786 76.6633 16.952H77.6633C77.6633 16.03 77.9898 15.2615 78.5322 14.7242C79.0745 14.187 79.8618 13.852 80.8353 13.852V12.852ZM76.6633 16.952C76.6633 18.1183 77.0811 19.1448 77.8301 19.8799C78.5787 20.6145 79.6272 21.028 80.8353 21.028V20.028C79.8594 20.028 79.0719 19.6975 78.5305 19.1661C77.9895 18.6352 77.6633 17.8737 77.6633 16.952H76.6633ZM80.8353 21.028C82.0342 21.028 83.0839 20.6443 83.8371 19.9192C84.5924 19.192 85.0073 18.1617 85.0073 16.952H84.0073C84.0073 17.9263 83.6782 18.684 83.1435 19.1988C82.6067 19.7157 81.8204 20.028 80.8353 20.028V21.028ZM92.6827 10.856L93.16 10.7072L93.0506 10.356H92.6827V10.856ZM95.4427 19.712L94.9653 19.8608L95.4451 21.4001L95.9205 19.8594L95.4427 19.712ZM98.1307 11V10.5H97.7617L97.6529 10.8526L98.1307 11ZM101.107 11L101.584 10.8526L101.476 10.5H101.107V11ZM103.795 19.712L103.317 19.8594L103.792 21.4001L104.272 19.8608L103.795 19.712ZM106.555 10.856V10.356H106.187L106.077 10.7072L106.555 10.856ZM110.011 10.856L110.483 11.0202L110.714 10.356H110.011V10.856ZM105.523 23.768V24.268H105.878L105.995 23.9322L105.523 23.768ZM102.235 23.768L101.76 23.9244L101.873 24.268H102.235V23.768ZM99.5707 15.68L100.046 15.5236L99.5707 14.0818L99.0958 15.5236L99.5707 15.68ZM96.9067 23.768V24.268H97.2684L97.3816 23.9244L96.9067 23.768ZM93.6427 23.768L93.1707 23.9329L93.2878 24.268H93.6427V23.768ZM89.1307 10.856V10.356H88.4263L88.6587 11.0209L89.1307 10.856ZM92.2053 11.0048L94.9653 19.8608L95.92 19.5632L93.16 10.7072L92.2053 11.0048ZM95.9205 19.8594L98.6085 11.1474L97.6529 10.8526L94.9649 19.5646L95.9205 19.8594ZM98.1307 11.5H101.107V10.5H98.1307V11.5ZM100.629 11.1474L103.317 19.8594L104.272 19.5646L101.584 10.8526L100.629 11.1474ZM104.272 19.8608L107.032 11.0048L106.077 10.7072L103.317 19.5632L104.272 19.8608ZM106.555 11.356H110.011V10.356H106.555V11.356ZM109.538 10.6918L105.05 23.6038L105.995 23.9322L110.483 11.0202L109.538 10.6918ZM105.523 23.268H102.235V24.268H105.523V23.268ZM102.71 23.6116L100.046 15.5236L99.0958 15.8364L101.76 23.9244L102.71 23.6116ZM99.0958 15.5236L96.4318 23.6116L97.3816 23.9244L100.046 15.8364L99.0958 15.5236ZM96.9067 23.268H93.6427V24.268H96.9067V23.268ZM94.1147 23.6031L89.6027 10.6911L88.6587 11.0209L93.1707 23.9329L94.1147 23.6031ZM89.1307 11.356H92.6827V10.356H89.1307V11.356ZM110.009 17.312L110.509 17.3214L110.509 17.312L110.509 17.3026L110.009 17.312ZM116.873 10.52L116.867 11.02H116.873V10.52ZM116.873 24.104V23.604L116.867 23.604L116.873 24.104ZM114.185 20.096L113.82 20.4376L114.185 20.096ZM119.561 20.096L119.196 19.7544L119.561 20.096ZM110.509 17.3026C110.442 13.7777 113.276 10.9754 116.867 11.02L116.879 10.02C112.742 9.96864 109.432 13.2143 109.509 17.3214L110.509 17.3026ZM116.873 11.02C120.559 11.02 123.237 13.7265 123.237 17.312H124.237C124.237 13.1695 121.107 10.02 116.873 10.02V11.02ZM123.237 17.312C123.237 20.8975 120.559 23.604 116.873 23.604V24.604C121.107 24.604 124.237 21.4545 124.237 17.312H123.237ZM116.867 23.604C113.276 23.6486 110.442 20.8463 110.509 17.3214L109.509 17.3026C109.432 21.4097 112.742 24.6554 116.879 24.604L116.867 23.604ZM121.117 17.312C121.117 14.8596 119.412 12.9 116.873 12.9V13.9C118.798 13.9 120.117 15.3484 120.117 17.312H121.117ZM116.873 12.9C114.356 12.9 112.653 14.8618 112.653 17.312H113.653C113.653 15.3462 114.974 13.9 116.873 13.9V12.9ZM112.653 17.312C112.653 18.551 113.027 19.59 113.82 20.4376L114.55 19.7544C113.951 19.114 113.653 18.329 113.653 17.312H112.653ZM113.82 20.4376C114.62 21.2934 115.646 21.7 116.873 21.7V20.7C115.892 20.7 115.142 20.3866 114.55 19.7544L113.82 20.4376ZM116.873 21.7C118.1 21.7 119.126 21.2934 119.926 20.4376L119.196 19.7544C118.604 20.3866 117.854 20.7 116.873 20.7V21.7ZM119.926 20.4376C120.714 19.5957 121.117 18.5595 121.117 17.312H120.117C120.117 18.3205 119.8 19.1083 119.196 19.7544L119.926 20.4376Z" fill="#0C1E4B"/>
<defs>
<filter id="filter0_d_1_202" x="0.445312" y="1.58203" width="32.5508" height="29.4177" filterUnits="userSpaceOnUse" color-interpolation-filters="sRGB">
<feFlood flood-opacity="0" result="BackgroundImageFix"/>
<feColorMatrix in="SourceAlpha" type="matrix" values="0 0 0 0 0 0 0 0 0 0 0 0 0 0 0 0 0 0 127 0" result="hardAlpha"/>
<feOffset dx="-3" dy="-3"/>
<feComposite in2="hardAlpha" operator="out"/>
<feColorMatrix type="matrix" values="0 0 0 0 0.498039 0 0 0 0 0.101961 0 0 0 0 0.796078 0 0 0 0.4 0"/>
<feBlend mode="normal" in2="BackgroundImageFix" result="effect1_dropShadow_1_202"/>
<feBlend mode="normal" in="SourceGraphic" in2="effect1_dropShadow_1_202" result="shape"/>
</filter>
<linearGradient id="paint0_linear_1_202" x1="12.1234" y1="4.14114" x2="30.088" y2="15.9998" gradientUnits="userSpaceOnUse">
<stop stop-color="#4127DE" stop-opacity="0.4"/>
<stop offset="1" stop-color="#8D1BC5" stop-opacity="0.6"/>
</linearGradient>
<linearGradient id="paint1_linear_1_202" x1="8.80222" y1="4.7546" x2="19.8927" y2="25.1068" gradientUnits="userSpaceOnUse">
<stop stop-color="#7F1ACB"/>
<stop offset="0.979149" stop-color="#342DEA"/>
</linearGradient>
</defs>
</svg>
