<svg width="184" height="51" viewBox="0 0 184 51" fill="none" xmlns="http://www.w3.org/2000/svg">
<circle cx="19" cy="25" r="16" fill="url(#paint0_linear_1_240)" fill-opacity="0.7"/>
<g filter="url(#filter0_d_1_240)">
<path d="M12.2231 12.8937C7.96798 13.4345 5.34797 16.4947 4.17722 20.1916C3.00648 23.8885 2.41151 32.7684 9.91871 38.0115C17.4259 43.2546 25.0072 40.4743 28.2775 38.1418C31.8637 35.5841 35.9126 30.4452 34.8163 22.4216C34.8163 22.4216 34.227 29.6953 27.5917 33.2645C20.9565 36.8336 17.6304 32.1874 20.046 29.2765C22.4616 26.3656 23.2213 22.839 22.4616 19.7601C21.2414 14.8153 16.4782 12.353 12.2231 12.8937Z" fill="url(#paint1_linear_1_240)"/>
</g>
<path d="M54.094 9.172V32.39H68.04V37.216H48.736V9.172H54.094ZM70.1769 10.958C70.1769 9.248 71.5449 7.88 73.4069 7.88C75.2309 7.88 76.6369 9.248 76.6369 10.958C76.6369 12.744 75.2689 14.036 73.4069 14.036C71.5449 14.036 70.1769 12.744 70.1769 10.958ZM75.9909 16.772V37.216H70.8229V16.772H75.9909ZM100.214 25.664V37.216H95.0084V26.044C95.0084 22.548 93.4124 20.762 90.4104 20.762C87.4084 20.762 85.2044 23.08 85.2044 26.538V37.216H80.0364V16.772H85.2044V19.698C86.3824 17.608 88.7384 16.24 91.6264 16.24C96.9464 16.24 100.214 19.698 100.214 25.664ZM119.637 16.772H124.843V35.278C124.843 42.004 119.941 45.804 113.519 45.804C109.263 45.804 105.767 43.904 103.905 41.168L107.933 38.66C109.035 40.332 111.049 41.396 113.519 41.396C117.433 41.396 119.637 39.268 119.637 35.278V33.492C118.269 35.506 115.837 36.608 112.987 36.608C107.325 36.722 102.955 32.086 103.031 26.424C103.031 20.61 107.287 16.24 112.987 16.24C115.875 16.24 118.269 17.342 119.637 19.356V16.772ZM119.637 26.424C119.637 22.966 117.281 20.724 113.823 20.724C110.365 20.724 108.009 23.118 108.009 26.424C108.009 29.73 110.365 32.086 113.823 32.086C117.281 32.086 119.637 29.882 119.637 26.424ZM132.581 16.772L136.951 30.794L141.207 17H145.919L150.175 30.794L154.545 16.772H160.017L152.911 37.216H147.705L143.487 24.41L139.269 37.216H134.101L126.957 16.772H132.581ZM160.014 26.994C159.9 20.952 164.764 16.164 170.882 16.24C177.152 16.24 181.75 20.876 181.75 26.994C181.75 33.112 177.152 37.748 170.882 37.748C164.764 37.824 159.9 33.036 160.014 26.994ZM176.81 26.994C176.81 23.498 174.416 20.8 170.882 20.8C167.386 20.8 164.992 23.498 164.992 26.994C164.992 28.78 165.524 30.224 166.626 31.402C167.728 32.58 169.134 33.15 170.882 33.15C172.63 33.15 174.036 32.58 175.138 31.402C176.24 30.224 176.81 28.78 176.81 26.994Z" fill="white"/>
<path d="M54.094 9.172H54.594V8.672H54.094V9.172ZM54.094 32.39H53.594V32.89H54.094V32.39ZM68.04 32.39H68.54V31.89H68.04V32.39ZM68.04 37.216V37.716H68.54V37.216H68.04ZM48.736 37.216H48.236V37.716H48.736V37.216ZM48.736 9.172V8.672H48.236V9.172H48.736ZM53.594 9.172V32.39H54.594V9.172H53.594ZM54.094 32.89H68.04V31.89H54.094V32.89ZM67.54 32.39V37.216H68.54V32.39H67.54ZM68.04 36.716H48.736V37.716H68.04V36.716ZM49.236 37.216V9.172H48.236V37.216H49.236ZM48.736 9.672H54.094V8.672H48.736V9.672ZM75.9909 16.772H76.4909V16.272H75.9909V16.772ZM75.9909 37.216V37.716H76.4909V37.216H75.9909ZM70.8229 37.216H70.3229V37.716H70.8229V37.216ZM70.8229 16.772V16.272H70.3229V16.772H70.8229ZM70.6769 10.958C70.6769 9.53985 71.8051 8.38 73.4069 8.38V7.38C71.2847 7.38 69.6769 8.95615 69.6769 10.958H70.6769ZM73.4069 8.38C74.9747 8.38 76.1369 9.54365 76.1369 10.958H77.1369C77.1369 8.95234 75.4871 7.38 73.4069 7.38V8.38ZM76.1369 10.958C76.1369 12.4442 75.017 13.536 73.4069 13.536V14.536C75.5208 14.536 77.1369 13.0438 77.1369 10.958H76.1369ZM73.4069 13.536C71.7968 13.536 70.6769 12.4442 70.6769 10.958H69.6769C69.6769 13.0438 71.293 14.536 73.4069 14.536V13.536ZM75.4909 16.772V37.216H76.4909V16.772H75.4909ZM75.9909 36.716H70.8229V37.716H75.9909V36.716ZM71.3229 37.216V16.772H70.3229V37.216H71.3229ZM70.8229 17.272H75.9909V16.272H70.8229V17.272ZM100.214 37.216V37.716H100.714V37.216H100.214ZM95.0084 37.216H94.5084V37.716H95.0084V37.216ZM85.2044 37.216V37.716H85.7044V37.216H85.2044ZM80.0364 37.216H79.5364V37.716H80.0364V37.216ZM80.0364 16.772V16.272H79.5364V16.772H80.0364ZM85.2044 16.772H85.7044V16.272H85.2044V16.772ZM85.2044 19.698H84.7044V21.6034L85.64 19.9435L85.2044 19.698ZM99.7144 25.664V37.216H100.714V25.664H99.7144ZM100.214 36.716H95.0084V37.716H100.214V36.716ZM95.5084 37.216V26.044H94.5084V37.216H95.5084ZM95.5084 26.044C95.5084 24.2292 95.0951 22.7711 94.2112 21.7625C93.317 20.7421 92.0127 20.262 90.4104 20.262V21.262C91.8102 21.262 92.8048 21.6749 93.4591 22.4215C94.1237 23.1799 94.5084 24.3628 94.5084 26.044H95.5084ZM90.4104 20.262C88.7746 20.262 87.3374 20.8965 86.3129 22.0156C85.2906 23.1322 84.7044 24.7023 84.7044 26.538H85.7044C85.7044 24.9157 86.2202 23.5978 87.0505 22.6909C87.8784 21.7865 89.0443 21.262 90.4104 21.262V20.262ZM84.7044 26.538V37.216H85.7044V26.538H84.7044ZM85.2044 36.716H80.0364V37.716H85.2044V36.716ZM80.5364 37.216V16.772H79.5364V37.216H80.5364ZM80.0364 17.272H85.2044V16.272H80.0364V17.272ZM84.7044 16.772V19.698H85.7044V16.772H84.7044ZM85.64 19.9435C86.7197 18.0279 88.8983 16.74 91.6264 16.74V15.74C88.5785 15.74 86.0451 17.1881 84.7688 19.4525L85.64 19.9435ZM91.6264 16.74C94.1743 16.74 96.1774 17.5647 97.5475 19.0533C98.9224 20.5472 99.7144 22.7693 99.7144 25.664H100.714C100.714 22.5927 99.8725 20.1028 98.2833 18.3762C96.6894 16.6443 94.3985 15.74 91.6264 15.74V16.74ZM119.637 16.772V16.272H119.137V16.772H119.637ZM124.843 16.772H125.343V16.272H124.843V16.772ZM103.905 41.168L103.64 40.7436L103.198 41.0188L103.491 41.4493L103.905 41.168ZM107.933 38.66L108.35 38.3848L108.082 37.978L107.668 38.2355L107.933 38.66ZM119.637 33.492H120.137V31.866L119.223 33.2111L119.637 33.492ZM112.987 36.608V36.1079L112.977 36.1081L112.987 36.608ZM103.031 26.424L103.531 26.4307V26.424H103.031ZM119.637 19.356L119.223 19.6369L120.137 20.982V19.356H119.637ZM119.637 17.272H124.843V16.272H119.637V17.272ZM124.343 16.772V35.278H125.343V16.772H124.343ZM124.343 35.278C124.343 38.5108 123.169 41.001 121.258 42.6884C119.339 44.3827 116.634 45.304 113.519 45.304V46.304C116.825 46.304 119.782 45.3253 121.92 43.4381C124.065 41.544 125.343 38.7712 125.343 35.278H124.343ZM113.519 45.304C109.409 45.304 106.077 43.4712 104.318 40.8867L103.491 41.4493C105.456 44.3368 109.116 46.304 113.519 46.304V45.304ZM104.169 41.5924L108.197 39.0844L107.668 38.2355L103.64 40.7436L104.169 41.5924ZM107.515 38.9352C108.722 40.7662 110.904 41.896 113.519 41.896V40.896C111.193 40.896 109.347 39.8978 108.35 38.3848L107.515 38.9352ZM113.519 41.896C115.563 41.896 117.236 41.339 118.397 40.1884C119.559 39.037 120.137 37.3629 120.137 35.278H119.137C119.137 37.1831 118.612 38.568 117.693 39.4781C116.774 40.389 115.388 40.896 113.519 40.896V41.896ZM120.137 35.278V33.492H119.137V35.278H120.137ZM119.223 33.2111C117.969 35.057 115.712 36.108 112.987 36.108V37.108C115.961 37.108 118.568 35.955 120.05 33.7729L119.223 33.2111ZM112.977 36.1081C107.616 36.216 103.458 31.8297 103.531 26.4307L102.531 26.4173C102.451 32.3423 107.033 37.228 112.997 37.1079L112.977 36.1081ZM103.531 26.424C103.531 20.8749 107.574 16.74 112.987 16.74V15.74C106.999 15.74 102.531 20.3451 102.531 26.424H103.531ZM112.987 16.74C115.749 16.74 117.968 17.7901 119.223 19.6369L120.05 19.0751C118.569 16.8939 116 15.74 112.987 15.74V16.74ZM120.137 19.356V16.772H119.137V19.356H120.137ZM120.137 26.424C120.137 24.5777 119.505 23.0173 118.375 21.9187C117.246 20.8217 115.661 20.224 113.823 20.224V21.224C115.442 21.224 116.764 21.7473 117.678 22.6358C118.59 23.5227 119.137 24.8123 119.137 26.424H120.137ZM113.823 20.224C111.975 20.224 110.391 20.8655 109.267 21.979C108.143 23.0925 107.509 24.649 107.509 26.424H108.509C108.509 24.893 109.052 23.5995 109.971 22.6895C110.889 21.7795 112.212 21.224 113.823 21.224V20.224ZM107.509 26.424C107.509 28.1993 108.143 29.7473 109.269 30.8516C110.393 31.9555 111.977 32.586 113.823 32.586V31.586C112.21 31.586 110.887 31.0385 109.969 30.1379C109.052 29.2377 108.509 27.9547 108.509 26.424H107.509ZM113.823 32.586C115.658 32.586 117.244 31.9993 118.373 30.9119C119.505 29.8225 120.137 28.2707 120.137 26.424H119.137C119.137 28.0353 118.59 29.3145 117.68 30.1916C116.766 31.0707 115.445 31.586 113.823 31.586V32.586ZM132.581 16.772L133.058 16.6232L132.949 16.272H132.581V16.772ZM136.951 30.794L136.474 30.9428L136.953 32.4821L137.429 30.9414L136.951 30.794ZM141.207 17V16.5H140.838L140.729 16.8526L141.207 17ZM145.919 17L146.397 16.8526L146.288 16.5H145.919V17ZM150.175 30.794L149.697 30.9414L150.173 32.4821L150.652 30.9428L150.175 30.794ZM154.545 16.772V16.272H154.177L154.068 16.6232L154.545 16.772ZM160.017 16.772L160.489 16.9362L160.72 16.272H160.017V16.772ZM152.911 37.216V37.716H153.266L153.383 37.3802L152.911 37.216ZM147.705 37.216L147.23 37.3724L147.343 37.716H147.705V37.216ZM143.487 24.41L143.962 24.2536L143.487 22.8118L143.012 24.2536L143.487 24.41ZM139.269 37.216V37.716H139.631L139.744 37.3724L139.269 37.216ZM134.101 37.216L133.629 37.3809L133.746 37.716H134.101V37.216ZM126.957 16.772V16.272H126.253L126.485 16.9369L126.957 16.772ZM132.104 16.9208L136.474 30.9428L137.428 30.6452L133.058 16.6232L132.104 16.9208ZM137.429 30.9414L141.685 17.1474L140.729 16.8526L136.473 30.6466L137.429 30.9414ZM141.207 17.5H145.919V16.5H141.207V17.5ZM145.441 17.1474L149.697 30.9414L150.653 30.6466L146.397 16.8526L145.441 17.1474ZM150.652 30.9428L155.022 16.9208L154.068 16.6232L149.698 30.6452L150.652 30.9428ZM154.545 17.272H160.017V16.272H154.545V17.272ZM159.545 16.6078L152.439 37.0518L153.383 37.3802L160.489 16.9362L159.545 16.6078ZM152.911 36.716H147.705V37.716H152.911V36.716ZM148.18 37.0596L143.962 24.2536L143.012 24.5664L147.23 37.3724L148.18 37.0596ZM143.012 24.2536L138.794 37.0596L139.744 37.3724L143.962 24.5664L143.012 24.2536ZM139.269 36.716H134.101V37.716H139.269V36.716ZM134.573 37.0511L127.429 16.6071L126.485 16.9369L133.629 37.3809L134.573 37.0511ZM126.957 17.272H132.581V16.272H126.957V17.272ZM160.014 26.994L160.514 27.0034L160.514 26.994L160.514 26.9846L160.014 26.994ZM170.882 16.24L170.876 16.74H170.882V16.24ZM170.882 37.748V37.248L170.876 37.248L170.882 37.748ZM166.626 31.402L166.261 31.7436L166.626 31.402ZM175.138 31.402L174.773 31.0604L175.138 31.402ZM160.514 26.9846C160.406 21.2337 165.031 16.6674 170.876 16.74L170.888 15.74C164.497 15.6606 159.395 20.6703 159.514 27.0034L160.514 26.9846ZM170.882 16.74C176.878 16.74 181.25 21.1545 181.25 26.994H182.25C182.25 20.5975 177.426 15.74 170.882 15.74V16.74ZM181.25 26.994C181.25 32.8335 176.878 37.248 170.882 37.248V38.248C177.426 38.248 182.25 33.3905 182.25 26.994H181.25ZM170.876 37.248C165.031 37.3206 160.406 32.7543 160.514 27.0034L159.514 26.9846C159.395 33.3177 164.497 38.3274 170.888 38.248L170.876 37.248ZM177.31 26.994C177.31 23.2536 174.723 20.3 170.882 20.3V21.3C174.109 21.3 176.31 23.7424 176.31 26.994H177.31ZM170.882 20.3C167.077 20.3 164.492 23.2558 164.492 26.994H165.492C165.492 23.7402 167.695 21.3 170.882 21.3V20.3ZM164.492 26.994C164.492 28.891 165.062 30.462 166.261 31.7436L166.991 31.0604C165.986 29.986 165.492 28.669 165.492 26.994H164.492ZM166.261 31.7436C167.468 33.0334 169.011 33.65 170.882 33.65V32.65C169.257 32.65 167.989 32.1266 166.991 31.0604L166.261 31.7436ZM170.882 33.65C172.753 33.65 174.297 33.0334 175.503 31.7436L174.773 31.0604C173.776 32.1266 172.507 32.65 170.882 32.65V33.65ZM175.503 31.7436C176.697 30.4677 177.31 28.8995 177.31 26.994H176.31C176.31 28.6605 175.784 29.9803 174.773 31.0604L175.503 31.7436Z" fill="white"/>
<defs>
<filter id="filter0_d_1_240" x="0.476562" y="9.82031" width="34.5234" height="31.1792" filterUnits="userSpaceOnUse" color-interpolation-filters="sRGB">
<feFlood flood-opacity="0" result="BackgroundImageFix"/>
<feColorMatrix in="SourceAlpha" type="matrix" values="0 0 0 0 0 0 0 0 0 0 0 0 0 0 0 0 0 0 127 0" result="hardAlpha"/>
<feOffset dx="-3" dy="-3"/>
<feComposite in2="hardAlpha" operator="out"/>
<feColorMatrix type="matrix" values="0 0 0 0 1 0 0 0 0 1 0 0 0 0 1 0 0 0 0.5 0"/>
<feBlend mode="normal" in2="BackgroundImageFix" result="effect1_dropShadow_1_240"/>
<feBlend mode="normal" in="SourceGraphic" in2="effect1_dropShadow_1_240" result="shape"/>
</filter>
<linearGradient id="paint0_linear_1_240" x1="12.7318" y1="12.3506" x2="31.8941" y2="25" gradientUnits="userSpaceOnUse">
<stop stop-color="white"/>
<stop offset="1" stop-color="white"/>
</linearGradient>
<linearGradient id="paint1_linear_1_240" x1="9.19066" y1="13.0044" x2="21.0207" y2="34.7136" gradientUnits="userSpaceOnUse">
<stop stop-color="white"/>
<stop offset="0.979149" stop-color="white"/>
</linearGradient>
</defs>
</svg>
