<svg width="53" height="53" viewBox="0 0 53 53" fill="none" xmlns="http://www.w3.org/2000/svg">
<path d="M26.5 0C33.5282 0 40.2686 2.79196 45.2383 7.76167C50.208 12.7314 53 19.4718 53 26.5C53 33.5282 50.208 40.2686 45.2383 45.2383C40.2686 50.208 33.5282 53 26.5 53C19.4718 53 12.7314 50.208 7.76167 45.2383C2.79196 40.2686 0 33.5282 0 26.5C0 19.4718 2.79196 12.7314 7.76167 7.76167C12.7314 2.79196 19.4718 0 26.5 0ZM26.5 49.2143C32.5242 49.2143 38.3017 46.8212 42.5614 42.5614C46.8212 38.3017 49.2143 32.5242 49.2143 26.5C49.2143 20.4758 46.8212 14.6983 42.5614 10.4386C38.3017 6.17882 32.5242 3.78571 26.5 3.78571C20.4758 3.78571 14.6983 6.17882 10.4386 10.4386C6.17882 14.6983 3.78571 20.4758 3.78571 26.5C3.78571 32.5242 6.17882 38.3017 10.4386 42.5614C14.6983 46.8212 20.4758 49.2143 26.5 49.2143ZM23.6607 34.5674L35.7636 26.5L23.6607 18.4326V34.5674ZM24.2891 14.2986L39.0459 24.1377C39.4347 24.397 39.7536 24.7483 39.9741 25.1604C40.1946 25.5725 40.31 26.0326 40.31 26.5C40.31 26.9674 40.1946 27.4275 39.9741 27.8396C39.7536 28.2517 39.4347 28.603 39.0459 28.8623L24.2891 38.7014C23.8616 38.9864 23.3646 39.15 22.8513 39.1748C22.3381 39.1996 21.8277 39.0847 21.3746 38.8422C20.9215 38.5997 20.5427 38.2388 20.2786 37.798C20.0145 37.3572 19.875 36.853 19.875 36.3391V16.6571C19.875 16.1433 20.0145 15.639 20.2786 15.1982C20.5427 14.7574 20.9215 14.3965 21.3746 14.154C21.8277 13.9115 22.3381 13.7966 22.8513 13.8214C23.3646 13.8462 23.8616 14.0098 24.2891 14.2949V14.2986Z" fill="white"/>
</svg>
